<?xml version="1.0" standalone="no"?>
<!DOCTYPE svg PUBLIC "-//W3C//DTD SVG 20010904//EN"
 "http://www.w3.org/TR/2001/REC-SVG-20010904/DTD/svg10.dtd">
<svg version="1.0" xmlns="http://www.w3.org/2000/svg"
 width="448.000000pt" height="86.000000pt" viewBox="0 0 448.000000 86.000000"
 preserveAspectRatio="xMidYMid meet">

<g transform="translate(0.000000,86.000000) scale(0.100000,-0.100000)"
fill="#000000" stroke="none">
<path d="M267 775 c-38 -8 -84 -19 -103 -25 l-34 -12 0 -296 c0 -164 -4 -311
-9 -329 l-9 -32 66 35 c72 38 153 54 231 46 41 -4 49 -8 58 -33 26 -68 134
-71 165 -5 15 30 21 34 65 38 79 6 154 -9 226 -46 52 -27 67 -31 62 -18 -3 9
-9 157 -12 329 l-6 313 -51 15 c-125 37 -239 40 -327 9 -30 -10 -44 -10 -76 1
-62 21 -170 26 -246 10z m212 -21 l31 -6 0 -265 c0 -249 -1 -265 -17 -258 -10
4 -54 9 -98 12 -75 5 -105 1 -223 -33 l-22 -6 2 263 3 264 65 17 c66 17 202
23 259 12z m401 -12 l65 -17 3 -264 2 -263 -22 6 c-118 34 -147 38 -218 33
-41 -4 -85 -9 -97 -13 l-23 -6 0 265 0 266 28 4 c67 10 201 4 262 -11z m-310
-298 c-1 -272 -2 -295 -18 -292 -15 3 -17 29 -20 282 -2 153 -1 285 2 292 3 8
12 14 21 14 14 0 15 -35 15 -296z m-78 -245 c35 -19 8 -24 -106 -20 -102 3
-119 1 -174 -22 -58 -23 -62 -23 -62 -6 0 23 5 26 92 49 78 21 210 21 250 -1z
m398 -7 c33 -11 56 -26 58 -35 4 -21 -10 -21 -46 -3 -52 26 -133 36 -217 27
-80 -9 -104 -6 -88 10 32 32 203 32 293 1z m-365 -48 c23 -15 27 -15 51 1 29
19 49 9 38 -18 -16 -44 -126 -34 -132 11 -4 26 10 28 43 6z"/>
<path d="M240 650 c-18 -12 -27 -11 125 -11 152 0 143 -1 125 11 -8 5 -64 10
-125 10 -60 0 -117 -5 -125 -10z"/>
<path d="M240 600 c-8 -5 -13 -10 -10 -10 14 -2 256 -2 265 0 6 1 1 5 -10 10
-28 12 -227 12 -245 0z"/>
<path d="M258 554 c-44 -13 -8 -19 112 -19 88 -1 127 2 120 9 -11 11 -202 19
-232 10z"/>
<path d="M240 490 c-8 -5 -13 -10 -10 -10 3 0 62 -2 133 -3 121 -2 154 3 105
17 -37 9 -212 7 -228 -4z"/>
<path d="M240 430 c-8 -5 -13 -10 -10 -10 60 -7 259 -3 257 5 -5 13 -228 18
-247 5z"/>
<path d="M240 380 c-8 -5 -13 -10 -10 -10 60 -7 259 -3 257 5 -5 13 -228 18
-247 5z"/>
<path d="M240 330 c-8 -5 -13 -10 -10 -10 52 -7 259 -3 257 5 -5 13 -228 18
-247 5z"/>
<path d="M623 653 c-34 -13 -2 -18 114 -16 71 2 130 3 133 3 3 0 -2 5 -10 10
-15 10 -215 13 -237 3z"/>
<path d="M617 603 c-16 -16 0 -18 123 -18 122 0 151 5 114 19 -21 8 -229 8
-237 -1z"/>
<path d="M633 553 c-56 -11 -13 -18 107 -18 72 0 130 3 130 6 0 16 -173 24
-237 12z"/>
<path d="M621 491 c-10 -6 29 -10 115 -13 134 -3 142 -3 130 10 -11 11 -229
14 -245 3z"/>
<path d="M620 430 c-9 -6 31 -10 115 -12 72 -2 132 -2 135 0 2 2 -2 7 -10 12
-19 12 -221 13 -240 0z"/>
<path d="M620 380 c-8 -5 -13 -10 -10 -10 3 0 62 -2 133 -3 120 -2 155 3 105
17 -37 9 -212 7 -228 -4z"/>
<path d="M610 331 c0 -9 248 -21 260 -13 2 2 -2 7 -10 12 -20 13 -250 13 -250
1z"/>
<path d="M2200 596 l0 -85 -31 11 c-81 28 -156 -39 -166 -151 -14 -154 70
-240 178 -182 30 16 37 17 54 5 30 -22 64 -17 77 11 9 19 9 28 0 37 -8 8 -12
73 -12 213 0 143 -3 204 -12 213 -7 7 -29 12 -50 12 l-38 0 0 -84z m-16 -152
c13 -5 16 -22 16 -85 0 -69 -2 -80 -22 -93 -28 -20 -33 -20 -52 0 -23 22 -22
141 1 166 17 19 31 22 57 12z"/>
<path d="M1371 650 c-48 -12 -82 -40 -111 -91 -20 -36 -25 -61 -28 -139 -3
-88 -1 -99 25 -150 46 -91 125 -119 236 -86 25 7 59 23 76 35 30 22 30 23 16
51 -21 41 -29 43 -70 19 -53 -32 -108 -30 -142 4 -23 23 -28 37 -31 97 -8 128
16 180 81 180 41 0 63 -22 72 -72 7 -35 10 -38 40 -38 63 0 83 52 47 120 -32
58 -129 91 -211 70z"/>
<path d="M3020 415 l0 -235 114 0 c121 0 156 8 195 43 43 40 61 94 61 190 0
184 -56 236 -257 237 l-113 0 0 -235z m225 133 c51 -45 53 -212 3 -265 -17
-18 -32 -23 -75 -23 l-53 0 0 155 0 155 49 0 c37 0 56 -6 76 -22z"/>
<path d="M1720 512 c-106 -52 -106 -268 0 -324 114 -59 230 22 230 162 0 109
-61 180 -155 180 -22 0 -56 -8 -75 -18z m110 -81 c5 -11 10 -47 10 -81 0 -34
-5 -70 -10 -81 -13 -23 -53 -25 -71 -3 -18 22 -18 146 0 167 18 23 58 21 71
-2z"/>
<path d="M2442 510 c-51 -31 -76 -96 -69 -183 8 -112 63 -162 167 -154 95 8
125 31 100 77 -9 16 -15 18 -36 10 -62 -24 -124 -4 -124 41 0 17 8 19 90 19
l90 0 0 58 c0 40 -6 67 -20 90 -37 60 -134 81 -198 42z m108 -70 c35 -35 26
-50 -29 -50 -46 0 -49 1 -44 23 5 22 29 47 45 47 4 0 17 -9 28 -20z"/>
<path d="M2882 514 c-17 -7 -34 -20 -39 -29 -9 -15 -13 -15 -36 9 -50 50 -112
16 -80 -44 8 -17 13 -66 13 -147 l0 -123 50 0 50 0 0 110 c0 106 1 110 25 126
14 9 36 14 49 12 20 -4 25 1 35 32 6 21 11 42 11 47 0 17 -46 21 -78 7z"/>
<path d="M3531 512 c-58 -29 -75 -63 -79 -150 -5 -116 36 -177 126 -189 55 -7
85 2 125 37 60 52 74 175 30 251 -36 62 -133 87 -202 51z m109 -81 c13 -25 13
-122 0 -155 -7 -20 -17 -26 -39 -26 -24 0 -31 6 -40 31 -16 46 -14 121 5 147
19 27 60 29 74 3z"/>
<path d="M3879 507 c-49 -32 -69 -79 -69 -160 0 -126 56 -186 162 -174 91 11
129 47 92 88 -14 15 -18 16 -42 3 -68 -36 -112 -1 -112 90 0 69 14 98 48 94
22 -2 29 -10 36 -40 9 -34 13 -38 41 -38 37 0 55 15 55 48 0 90 -128 145 -211
89z"/>
<path d="M4196 515 c-42 -22 -55 -44 -56 -91 0 -53 22 -80 91 -113 60 -29 70
-45 39 -61 -17 -9 -32 -8 -68 5 -44 14 -48 14 -60 -2 -36 -49 32 -89 135 -79
94 8 137 63 111 142 -11 34 -22 43 -81 72 -65 33 -82 54 -52 66 8 3 36 -1 62
-9 27 -8 49 -15 49 -15 7 0 24 61 20 69 -19 30 -143 40 -190 16z"/>
</g>
</svg>
